<?xml version="1.0" encoding="utf-8"?>
<!DOCTYPE svg PUBLIC "-//W3C//DTD SVG 1.1//EN" "http://www.w3.org/Graphics/SVG/1.1/DTD/svg11.dtd">
<svg version="1.1" id="Layer_1" xmlns="http://www.w3.org/2000/svg" xmlns:xlink="http://www.w3.org/1999/xlink" x="0px" y="0px"
	 viewBox="0 0 71.6 71.6" enable-background="new 0 0 71.6 71.6" xml:space="preserve">
<g>
	<path d="M70.3,1.3c0.8,0.8,1.3,1.9,1.3,3.2v62.6c0,1.3-0.4,2.4-1.3,3.2c-0.8,0.8-1.9,1.3-3.2,1.3H4.5c-1.3,0-2.4-0.4-3.2-1.3
		C0.4,69.5,0,68.4,0,67.1V4.5c0-1.3,0.4-2.4,1.3-3.2C2.1,0.4,3.2,0,4.5,0h62.6C68.4,0,69.5,0.4,70.3,1.3z M67.6,3.9H3.9v63.7h63.7
		V3.9z M17.9,22.8h35.8v-5H17.9V22.8z M17.9,38.3h35.8v-5H17.9V38.3z M17.9,53.3h35.8v-5H17.9V53.3z"/>
</g>
</svg>
