<svg version="1.1" xmlns="http://www.w3.org/2000/svg" x="0" y="0" viewBox="0 0 212.5 77.4" enable-background="new 0 0 212.5 77.4" xml:space="preserve"><path d="M70.3 5.3c0.8 0.8 1.3 1.9 1.3 3.2v62.6c0 1.3-0.4 2.4-1.3 3.2 -0.8 0.8-1.9 1.3-3.2 1.3H4.5c-1.3 0-2.4-0.4-3.2-1.3C0.4 73.5 0 72.5 0 71.2V8.5c0-1.3 0.4-2.4 1.3-3.2C2.1 4.5 3.2 4 4.5 4h62.6C68.4 4 69.5 4.5 70.3 5.3zM62.6 13H8.9v53.7h53.7V13zM17.9 26.9h35.8v-5H17.9V26.9zM17.9 42.4h35.8v-5H17.9V42.4zM17.9 57.4h35.8v-5H17.9V57.4z"/><path d="M90.3 31.8v18.7h-3V7.6h10.2c5.3 0 9.2 1 11.8 2.9 2.5 2 3.8 4.9 3.8 8.9 0 2.9-0.8 5.3-2.3 7.3 -1.5 2-3.8 3.4-6.9 4.2l11.6 19.5H112l-11-18.7H90.3zM90.3 29.2h8.2c3.6 0 6.4-0.8 8.4-2.4s3-4 3-7.1c0-3.3-1-5.6-2.9-7.1 -2-1.5-5.1-2.2-9.6-2.2h-7.1V29.2zM123 50.4V7.6h3v42.8H123zM156.4 9.7c-5.4 0-9.6 1.7-12.7 5.2 -3.1 3.4-4.6 8.1-4.6 14.1 0 6.1 1.5 10.9 4.4 14.2 2.9 3.4 7.1 5.1 12.5 5.1 3.6 0 6.9-0.5 9.9-1.4v2.6c-2.8 1-6.4 1.5-10.6 1.5 -6 0-10.8-1.9-14.2-5.8 -3.5-3.9-5.2-9.3-5.2-16.3 0-4.4 0.8-8.2 2.5-11.5 1.7-3.3 4-5.9 7.1-7.7 3.1-1.8 6.7-2.7 10.8-2.7 4.2 0 7.9 0.8 11.2 2.3l-1.2 2.7C163.1 10.4 159.8 9.7 156.4 9.7zM206.4 50.4h-3V29.4h-25v21.1h-3V7.6h3v19h25v-19h3V50.4z"/><path d="M89.9 71.7h-3.1V60.1h6.8v2.5h-3.8v2.2h3.5v2.5h-3.5V71.7zM101.8 71.7l-0.4-1.1h-0.2c-0.3 0.4-0.6 0.7-1.1 0.9 -0.5 0.2-1 0.3-1.6 0.3 -1 0-1.8-0.3-2.3-0.9 -0.5-0.6-0.8-1.4-0.8-2.4v-5.8h3.1v4.9c0 0.6 0.1 1 0.2 1.3s0.4 0.5 0.8 0.5c0.5 0 0.9-0.2 1.1-0.6 0.2-0.4 0.3-1.1 0.3-2.1v-3.9h3.1v9H101.8zM111.9 71.7v-4.9c0-0.6-0.1-1-0.3-1.3 -0.2-0.3-0.4-0.5-0.8-0.5 -0.5 0-0.9 0.2-1.1 0.6 -0.2 0.4-0.3 1.1-0.3 2.1v3.9h-3.1v-9h2.3l0.4 1.1h0.2c0.3-0.4 0.6-0.7 1.1-0.9s1-0.3 1.6-0.3c1 0 1.8 0.3 2.3 0.9 0.6 0.6 0.8 1.4 0.8 2.4v5.8H111.9zM121.2 71.9c-1.5 0-2.6-0.4-3.3-1.2s-1.1-1.9-1.1-3.4c0-1.5 0.4-2.6 1.2-3.5s2-1.2 3.5-1.2c1 0 2 0.2 2.9 0.7l-0.9 2.3c-0.4-0.2-0.7-0.3-1-0.4s-0.6-0.1-1-0.1c-0.5 0-0.9 0.2-1.2 0.6 -0.3 0.4-0.4 0.9-0.4 1.7 0 1.4 0.5 2.2 1.6 2.2 0.9 0 1.8-0.3 2.6-0.8v2.5C123.3 71.6 122.3 71.9 121.2 71.9zM130.2 69.4c0.4 0 0.9-0.1 1.5-0.3v2.3c-0.4 0.2-0.8 0.3-1.2 0.4 -0.4 0.1-0.8 0.1-1.3 0.1 -1 0-1.8-0.3-2.2-0.8s-0.7-1.3-0.7-2.3V65h-1.1v-1.3l1.4-1 0.8-1.9h2v1.8h2.2V65h-2.2v3.5C129.4 69.1 129.7 69.4 130.2 69.4zM133.2 60.5c0-0.5 0.1-0.8 0.4-1 0.3-0.2 0.7-0.3 1.3-0.3s1 0.1 1.3 0.3c0.3 0.2 0.4 0.6 0.4 1 0 0.9-0.6 1.4-1.7 1.4C133.8 61.9 133.2 61.4 133.2 60.5zM136.4 71.7h-3.1v-9h3.1V71.7zM147.1 67.2c0 1.5-0.4 2.6-1.2 3.4s-1.9 1.2-3.3 1.2c-1.4 0-2.4-0.4-3.2-1.3s-1.2-2-1.2-3.4c0-1.5 0.4-2.6 1.2-3.4 0.8-0.8 1.9-1.2 3.3-1.2 0.9 0 1.7 0.2 2.3 0.6 0.7 0.4 1.2 0.9 1.6 1.6C146.9 65.4 147.1 66.3 147.1 67.2zM141.3 67.2c0 0.8 0.1 1.4 0.3 1.8 0.2 0.4 0.6 0.6 1 0.6 0.5 0 0.8-0.2 1-0.6 0.2-0.4 0.3-1 0.3-1.8 0-0.8-0.1-1.3-0.3-1.7 -0.2-0.4-0.5-0.6-1-0.6 -0.5 0-0.8 0.2-1 0.6C141.4 65.8 141.3 66.4 141.3 67.2zM154.5 71.7v-4.9c0-0.6-0.1-1-0.3-1.3 -0.2-0.3-0.4-0.5-0.8-0.5 -0.5 0-0.9 0.2-1.1 0.6 -0.2 0.4-0.3 1.1-0.3 2.1v3.9h-3.1v-9h2.3l0.4 1.1h0.2c0.3-0.4 0.6-0.7 1.1-0.9s1-0.3 1.6-0.3c1 0 1.8 0.3 2.3 0.9 0.6 0.6 0.8 1.4 0.8 2.4v5.8H154.5zM165.6 71.7l-0.6-1.2h-0.1c-0.4 0.5-0.8 0.9-1.3 1.1s-1 0.3-1.7 0.3c-0.8 0-1.5-0.3-2-0.8 -0.5-0.5-0.7-1.2-0.7-2.1 0-1 0.3-1.7 1-2.1 0.7-0.5 1.6-0.7 2.9-0.8l1.5 0v-0.1c0-0.7-0.4-1.1-1.1-1.1 -0.7 0-1.5 0.2-2.5 0.7l-0.9-2c1-0.5 2.4-0.8 4-0.8 1.1 0 2 0.3 2.7 0.9 0.6 0.6 0.9 1.4 0.9 2.4v5.9H165.6zM163.3 69.7c0.4 0 0.7-0.1 1-0.4 0.3-0.2 0.4-0.5 0.4-0.9v-0.7l-0.7 0c-1 0-1.5 0.4-1.5 1.1C162.4 69.4 162.7 69.7 163.3 69.7zM172.9 71.7h-3.1V59.4h3.1V71.7zM179.5 71.7V60.1h3.1v9h4.5v2.5H179.5zM188.7 60.5c0-0.5 0.1-0.8 0.4-1 0.3-0.2 0.7-0.3 1.3-0.3s1 0.1 1.3 0.3c0.3 0.2 0.4 0.6 0.4 1 0 0.9-0.6 1.4-1.7 1.4C189.2 61.9 188.7 61.4 188.7 60.5zM191.8 71.7h-3.1v-9h3.1V71.7zM200.9 68.9c0 1-0.3 1.7-1 2.2s-1.6 0.7-2.8 0.7c-0.7 0-1.2 0-1.7-0.1 -0.5-0.1-1-0.2-1.5-0.4v-2.5c0.5 0.2 1 0.4 1.6 0.5 0.6 0.1 1.1 0.2 1.5 0.2 0.7 0 1-0.2 1-0.5 0-0.2-0.1-0.3-0.3-0.4s-0.7-0.4-1.6-0.7c-0.8-0.3-1.4-0.7-1.7-1.2 -0.3-0.4-0.5-1-0.5-1.6 0-0.8 0.3-1.5 1-1.9s1.6-0.7 2.7-0.7c0.6 0 1.1 0.1 1.7 0.2s1.1 0.3 1.6 0.6l-0.8 2c-0.4-0.2-0.8-0.3-1.3-0.5s-0.8-0.2-1.1-0.2c-0.5 0-0.8 0.1-0.8 0.4 0 0.2 0.1 0.3 0.3 0.4s0.7 0.3 1.5 0.7c0.6 0.3 1.1 0.5 1.4 0.8 0.3 0.2 0.5 0.5 0.7 0.9C200.8 68.1 200.9 68.5 200.9 68.9zM207 69.4c0.4 0 0.9-0.1 1.5-0.3v2.3c-0.4 0.2-0.8 0.3-1.2 0.4 -0.4 0.1-0.8 0.1-1.3 0.1 -1 0-1.8-0.3-2.2-0.8s-0.7-1.3-0.7-2.3V65H202v-1.3l1.4-1 0.8-1.9h2v1.8h2.2V65h-2.2v3.5C206.2 69.1 206.5 69.4 207 69.4z"/></svg>